<?xml version="1.0" encoding="UTF-8" standalone="no"?>
<!-- Created with Inkscape (http://www.inkscape.org/) -->

<svg
   xmlns:dc="http://purl.org/dc/elements/1.1/"
   xmlns:cc="http://creativecommons.org/ns#"
   xmlns:rdf="http://www.w3.org/1999/02/22-rdf-syntax-ns#"
   xmlns:svg="http://www.w3.org/2000/svg"
   xmlns="http://www.w3.org/2000/svg"
   xmlns:sodipodi="http://sodipodi.sourceforge.net/DTD/sodipodi-0.dtd"
   xmlns:inkscape="http://www.inkscape.org/namespaces/inkscape"
   width="152.57143"
   height="152.57143"
   id="svg2"
   version="1.1"
   inkscape:version="0.47pre4 r22446"
   sodipodi:docname="toto.svg">
  <defs
     id="defs4">
    <inkscape:perspective
       sodipodi:type="inkscape:persp3d"
       inkscape:vp_x="0 : 526.18109 : 1"
       inkscape:vp_y="0 : 1000 : 0"
       inkscape:vp_z="744.09448 : 526.18109 : 1"
       inkscape:persp3d-origin="372.04724 : 350.78739 : 1"
       id="perspective10" />
  </defs>
  <sodipodi:namedview
     id="base"
     pagecolor="#ffffff"
     bordercolor="#666666"
     borderopacity="1.0"
     inkscape:pageopacity="0.0"
     inkscape:pageshadow="2"
     inkscape:zoom="0.98994949"
     inkscape:cx="287.16676"
     inkscape:cy="25.004368"
     inkscape:document-units="px"
     inkscape:current-layer="layer1"
     showgrid="false"
     inkscape:window-width="1336"
     inkscape:window-height="966"
     inkscape:window-x="134"
     inkscape:window-y="102"
     inkscape:window-maximized="0" />
  <metadata
     id="metadata7">
    <rdf:RDF>
      <cc:Work
         rdf:about="">
        <dc:format>image/svg+xml</dc:format>
        <dc:type
           rdf:resource="http://purl.org/dc/dcmitype/StillImage" />
        <dc:title />
      </cc:Work>
    </rdf:RDF>
  </metadata>
  <g
     inkscape:label="Calque 1"
     inkscape:groupmode="layer"
     id="layer1"
     transform="translate(4.1259764e-7,-0.73410499)">
    <path
       sodipodi:type="arc"
       style="fill:none;stroke:#000000;stroke-width:4;stroke-linecap:butt;stroke-linejoin:miter;stroke-miterlimit:4;stroke-opacity:1;stroke-dasharray:none"
       id="path3590"
       sodipodi:cx="257.14285"
       sodipodi:cy="546.64789"
       sodipodi:rx="74.285713"
       sodipodi:ry="74.285713"
       d="m 331.42857,546.64789 c 0,41.02686 -33.25885,74.28571 -74.28572,74.28571 -41.02686,0 -74.28571,-33.25885 -74.28571,-74.28571 0,-41.02687 33.25885,-74.28572 74.28571,-74.28572 41.02687,0 74.28572,33.25885 74.28572,74.28572 z"
       transform="translate(-180.85714,-469.62807)" />
    <g
       id="g3637"
       transform="translate(-179.05191,-400.48521)">
      <path
         transform="translate(0,-7.5195302)"
         d="m 302.85716,456.64789 c 0,13.41263 -10.87309,24.28571 -24.28572,24.28571 -13.41263,0 -24.28571,-10.87308 -24.28571,-24.28571 0,-13.41263 10.87308,-24.28572 24.28571,-24.28572 13.41263,0 24.28572,10.87309 24.28572,24.28572 z"
         sodipodi:ry="24.285715"
         sodipodi:rx="24.285715"
         sodipodi:cy="456.64789"
         sodipodi:cx="278.57144"
         id="path3592"
         style="fill:none;stroke-width:4;stroke-miterlimit:4;stroke-dasharray:none"
         sodipodi:type="arc" />
      <path
         sodipodi:type="arc"
         style="fill:none;stroke:#000000;stroke-width:20.53846359;stroke-linecap:butt;stroke-linejoin:miter;stroke-miterlimit:4;stroke-opacity:1;stroke-dasharray:none"
         id="path3633"
         sodipodi:cx="257.14285"
         sodipodi:cy="546.64789"
         sodipodi:rx="74.285713"
         sodipodi:ry="74.285713"
         d="m 331.42857,546.64789 c 0,41.02686 -33.25885,74.28571 -74.28572,74.28571 -41.02686,0 -74.28571,-33.25885 -74.28571,-74.28571 0,-41.02687 33.25885,-74.28572 74.28571,-74.28572 41.02687,0 74.28572,33.25885 74.28572,74.28572 z"
         transform="matrix(0.19475654,0,0,0.19475654,174.20546,342.66511)" />
      <path
         transform="matrix(0.19475654,0,0,0.19475654,230.20546,342.66511)"
         d="m 331.42857,546.64789 c 0,41.02686 -33.25885,74.28571 -74.28572,74.28571 -41.02686,0 -74.28571,-33.25885 -74.28571,-74.28571 0,-41.02687 33.25885,-74.28572 74.28571,-74.28572 41.02687,0 74.28572,33.25885 74.28572,74.28572 z"
         sodipodi:ry="74.285713"
         sodipodi:rx="74.285713"
         sodipodi:cy="546.64789"
         sodipodi:cx="257.14285"
         id="path3635"
         style="fill:none;stroke:#000000;stroke-width:20.53846359;stroke-linecap:butt;stroke-linejoin:miter;stroke-miterlimit:4;stroke-opacity:1;stroke-dasharray:none"
         sodipodi:type="arc" />
    </g>
    <text
       xml:space="preserve"
       style="font-size:40px;font-style:normal;font-weight:normal;fill:#000000;fill-opacity:1;stroke:none;font-family:Bitstream Vera Sans"
       x="59.527905"
       y="89.276497"
       id="text3642"><tspan
         sodipodi:role="line"
         id="tspan3644"
         x="59.527905"
         y="89.276497">+</tspan></text>
    <text
       xml:space="preserve"
       style="font-size:40px;font-style:normal;font-weight:normal;fill:#000000;fill-opacity:1;stroke:none;font-family:Bitstream Vera Sans"
       x="59.527905"
       y="122.01167"
       id="text3646"><tspan
         sodipodi:role="line"
         id="tspan3648"
         x="59.527905"
         y="122.01167">=</tspan></text>
  </g>
</svg>
